REM DIRINDEX 1\2\4,1\2\5,1\3\6,1\3\7,1\3\8
REM DIRNAME cjc094,folder01,folder02,folder03,folder04,folder05,folder06,folder07
TITLE ""
FILE "LV6_108_WORDS.mp3" MP3
  TRACK 01 AUDIO
    TITLE "0:"
    INDEX 01 00:00:00
  TRACK 02 AUDIO
    TITLE "6:cjc094_3683"
    INDEX 01 00:00:01
  TRACK 03 AUDIO
    TITLE "0:"
    INDEX 01 00:02:08
  TRACK 04 AUDIO
    TITLE "7:cjc094_3684"
    INDEX 01 00:02:63
  TRACK 05 AUDIO
    TITLE "0:"
    INDEX 01 00:03:66
  TRACK 06 AUDIO
    TITLE "8:cjc094_3685"
    INDEX 01 00:04:09
  TRACK 07 AUDIO
    TITLE "0:"
    INDEX 01 00:05:46
  TRACK 08 AUDIO
    TITLE "7:cjc094_3686"
    INDEX 01 00:06:24
  TRACK 09 AUDIO
    TITLE "0:"
    INDEX 01 00:07:27
  TRACK 10 AUDIO
    TITLE "8:cjc094_3687"
    INDEX 01 00:07:47
  TRACK 11 AUDIO
    TITLE "0:"
    INDEX 01 00:09:49
  TRACK 12 AUDIO
    TITLE "7:cjc094_3688"
    INDEX 01 00:10:14
  TRACK 13 AUDIO
    TITLE "0:"
    INDEX 01 00:11:21
  TRACK 14 AUDIO
    TITLE "8:cjc094_3689"
    INDEX 01 00:11:39
  TRACK 15 AUDIO
    TITLE "0:"
    INDEX 01 00:12:26
  TRACK 16 AUDIO
    TITLE "7:cjc094_3690"
    INDEX 01 00:12:71
  TRACK 17 AUDIO
    TITLE "0:"
    INDEX 01 00:13:65
  TRACK 18 AUDIO
    TITLE "8:cjc094_3691"
    INDEX 01 00:14:07
  TRACK 19 AUDIO
    TITLE "0:"
    INDEX 01 00:17:57
  TRACK 20 AUDIO
    TITLE "7:cjc094_3692"
    INDEX 01 00:18:35
  TRACK 21 AUDIO
    TITLE "0:"
    INDEX 01 00:19:46
  TRACK 22 AUDIO
    TITLE "8:cjc094_3693"
    INDEX 01 00:19:63
  TRACK 23 AUDIO
    TITLE "0:"
    INDEX 01 00:22:03
  TRACK 24 AUDIO
    TITLE "7:cjc094_3694"
    INDEX 01 00:22:50
  TRACK 25 AUDIO
    TITLE "0:"
    INDEX 01 00:23:55
  TRACK 26 AUDIO
    TITLE "8:cjc094_3695"
    INDEX 01 00:23:71
  TRACK 27 AUDIO
    TITLE "0:"
    INDEX 01 00:26:09
  TRACK 28 AUDIO
    TITLE "7:cjc094_3696"
    INDEX 01 00:26:60
  TRACK 29 AUDIO
    TITLE "0:"
    INDEX 01 00:28:04
  TRACK 30 AUDIO
    TITLE "8:cjc094_3697"
    INDEX 01 00:28:21
  TRACK 31 AUDIO
    TITLE "0:"
    INDEX 01 00:30:24
  TRACK 32 AUDIO
    TITLE "7:cjc094_3698"
    INDEX 01 00:30:73
  TRACK 33 AUDIO
    TITLE "0:"
    INDEX 01 00:31:67
  TRACK 34 AUDIO
    TITLE "8:cjc094_3699"
    INDEX 01 00:32:13
  TRACK 35 AUDIO
    TITLE "0:"
    INDEX 01 00:33:44
  TRACK 36 AUDIO
    TITLE "7:cjc094_3700"
    INDEX 01 00:34:14
  TRACK 37 AUDIO
    TITLE "0:"
    INDEX 01 00:35:06
  TRACK 38 AUDIO
    TITLE "8:cjc094_3701"
    INDEX 01 00:35:27
  TRACK 39 AUDIO
    TITLE "0:"
    INDEX 01 00:36:23
  TRACK 40 AUDIO
    TITLE "7:cjc094_3702"
    INDEX 01 00:36:74
  TRACK 41 AUDIO
    TITLE "0:"
    INDEX 01 00:37:71
  TRACK 42 AUDIO
    TITLE "8:cjc094_3703"
    INDEX 01 00:38:14
  TRACK 43 AUDIO
    TITLE "0:"
    INDEX 01 00:40:05
  TRACK 44 AUDIO
    TITLE "7:cjc094_3704"
    INDEX 01 00:40:46
  TRACK 45 AUDIO
    TITLE "0:"
    INDEX 01 00:41:42
  TRACK 46 AUDIO
    TITLE "8:cjc094_3705"
    INDEX 01 00:41:61
  TRACK 47 AUDIO
    TITLE "0:"
    INDEX 01 00:43:23
  TRACK 48 AUDIO
    TITLE "7:cjc094_3706"
    INDEX 01 00:43:72
  TRACK 49 AUDIO
    TITLE "0:"
    INDEX 01 00:45:24
  TRACK 50 AUDIO
    TITLE "8:cjc094_3707"
    INDEX 01 00:45:43
  TRACK 51 AUDIO
    TITLE "0:"
    INDEX 01 00:46:49
  TRACK 52 AUDIO
    TITLE "7:cjc094_3708"
    INDEX 01 00:47:27
  TRACK 53 AUDIO
    TITLE "0:"
    INDEX 01 00:48:32
  TRACK 54 AUDIO
    TITLE "8:cjc094_3709"
    INDEX 01 00:48:49
  TRACK 55 AUDIO
    TITLE "0:"
    INDEX 01 00:51:50
  TRACK 56 AUDIO
    TITLE "7:cjc094_3710"
    INDEX 01 00:52:24
  TRACK 57 AUDIO
    TITLE "0:"
    INDEX 01 00:53:21
  TRACK 58 AUDIO
    TITLE "8:cjc094_3711"
    INDEX 01 00:53:45
  TRACK 59 AUDIO
    TITLE "0:"
    INDEX 01 00:56:55
  TRACK 60 AUDIO
    TITLE "7:cjc094_3712"
    INDEX 01 00:57:29
  TRACK 61 AUDIO
    TITLE "0:"
    INDEX 01 00:58:38
  TRACK 62 AUDIO
    TITLE "8:cjc094_3713"
    INDEX 01 00:58:52
  TRACK 63 AUDIO
    TITLE "0:"
    INDEX 01 01:01:03
  TRACK 64 AUDIO
    TITLE "7:cjc094_3714"
    INDEX 01 01:01:54
  TRACK 65 AUDIO
    TITLE "0:"
    INDEX 01 01:02:54
  TRACK 66 AUDIO
    TITLE "8:cjc094_3715"
    INDEX 01 01:02:71
  TRACK 67 AUDIO
    TITLE "0:"
    INDEX 01 01:04:19
  TRACK 68 AUDIO
    TITLE "7:cjc094_3716"
    INDEX 01 01:04:64
  TRACK 69 AUDIO
    TITLE "0:"
    INDEX 01 01:05:62
  TRACK 70 AUDIO
    TITLE "8:cjc094_3717"
    INDEX 01 01:06:02
  TRACK 71 AUDIO
    TITLE "0:"
    INDEX 01 01:07:00
